# xmcd CD database file
#
# Track frame offsets:
#	150
#	20863
#	40471
#	60079
#	71701
#	90909
#	107613
#	120680
#	136085
#	151723
#	167936
#	180181
#	197376
#	216016
#	226614
#	244460
#	261770
#
# Disc length: 3710 seconds
#
# Revision: 0
# Processed by: cddbd v1.5.2PL0 Copyright (c) Steve Scherf et al.
# Submitted via: CDex 1.70beta2
#
DISCID=d60e7c11
DTITLE=Brooks, Garth - Ultimate Hits [CD1]
DYEAR=1900
DGENRE=Country
TTITLE0=Ain't Going Down (Til The Sun Comes Up)
TTITLE1=Friends In Low Places
TTITLE2=Shameless
TTITLE3=Two Of A Kind, Workin' On A Full House
TTITLE4=The Beaches of Cheyenne
TTITLE5=If Tomorrow Never Comes
TTITLE6=Papa Loved Mama
TTITLE7=More Than A Memory
TTITLE8=Good Ride Cowboy
TTITLE9=In Another's Eyes
TTITLE10=The Fever
TTITLE11=Midnight Sun
TTITLE12=Learning To Live Again
TTITLE13=Longneck Bottle
TTITLE14=To Make You Feel My Love
TTITLE15=We Shall Be Free
TTITLE16=The Dance
EXTD=
EXTT0=
EXTT1=
EXTT2=
EXTT3=
EXTT4=
EXTT5=
EXTT6=
EXTT7=
EXTT8=
EXTT9=
EXTT10=
EXTT11=
EXTT12=
EXTT13=
EXTT14=
EXTT15=
EXTT16=
PLAYORDER=
